<?xml version="1.0" encoding="utf-8"?>
<svg width="200" height="200" viewBox="0 0 200 200" xmlns="http://www.w3.org/2000/svg">
  <defs>
    <path id="text-path-0" d="M 45.60071563720703 63.892706793707774 Q 82.04359817504883 34.980438232421875 118.48648071289062 63.892706793707774"/>
    <path id="path-0" style="fill: none;" d="M 64.652 76.08 C 66.549 74.04 67.569 73.514 68.742 72.793 C 70.313 71.783 71.572 71.928 72.89 71.485 C 74.503 71.485 75.626 71.187 76.703 70.825 C 78.083 70.445 79.264 70.453 80.368 70.082 C 82.302 69.525 83.499 69.417 84.677 68.896 C 85.816 68.208 87.677 67.559 88.715 67.329 C 90.586 66.42 91.655 66.313 93.02 65.855 C 94.738 65.484 96.206 65.566 97.718 65.566 C 100.475 65.566 102.621 65.383 104.654 65.787 C 106.583 65.787 108.117 66.311 109.591 66.311 C 111.162 66.48 112.696 66.575 113.814 66.946 C 114.711 66.946 116.584 67.174 117.018 67.608 C 118.105 68.149 119.595 68.488 120.31 68.488 C 121.52 68.553 122.618 68.955 123.495 69.246 C 124.768 69.562 125.896 69.869 126.748 70.438 C 127.849 71.195 129.295 71.62 130.434 72.154 C 131.292 72.58 132.109 72.992 132.744 73.469 C 133.945 74.075 135.01 74.837 135.82 75.445 C 137.265 76.364 138.465 77.39 139.407 78.696 C 140.175 79.463 141.156 79.877 141.423 80.678"/>
  </defs>
  <path d="M100 10 C160 10 180 80 160 150 C150 180 50 180 40 150 C20 80 40 10 100 10 Z" style="fill: rgb(234, 83, 0);"/>
  <ellipse cx="100" cy="105" rx="55" ry="40" fill="#C2A85F"/>
  <rect x="95" y="75" width="10" height="60" fill="#E0D28D"/>
  <circle cx="130" cy="105" r="16" fill="#1F1F1F"/>
  <circle cx="73" cy="105" r="7" fill="#1F1F1F"/>
  <path d="M 55.083 54.386 L 56.683 54.386 L 56.683 39.986 L 55.083 39.986 L 55.083 34.738 L 69.771 34.738 Q 73.771 34.738 76.011 36.37 Q 78.251 38.002 78.251 41.042 Q 78.251 42.93 77.355 44.226 Q 76.459 45.522 75.259 46.178 Q 74.059 46.834 72.939 47.058 L 72.939 47.378 Q 75.211 47.602 77.035 48.818 Q 78.859 50.034 78.859 53.17 Q 78.859 56.53 76.331 58.082 Q 73.803 59.634 69.771 59.634 L 55.083 59.634 Z M 67.371 45.234 Q 68.299 45.234 68.763 44.738 Q 69.227 44.242 69.227 43.186 L 69.227 42.034 Q 69.227 40.978 68.763 40.482 Q 68.299 39.986 67.371 39.986 L 65.643 39.986 L 65.643 45.234 Z M 67.595 54.386 Q 68.523 54.386 68.987 53.89 Q 69.451 53.394 69.451 52.338 L 69.451 50.93 Q 69.451 49.874 68.987 49.378 Q 68.523 48.882 67.595 48.882 L 65.643 48.882 L 65.643 54.386 Z M 79.882 59.634 L 79.882 54.386 L 81.482 54.386 L 81.482 39.986 L 79.882 39.986 L 79.882 34.738 L 101.482 34.738 L 101.482 44.402 L 94.314 44.402 L 94.314 39.986 L 90.442 39.986 L 90.442 45.042 L 93.258 45.042 L 93.258 48.69 L 90.442 48.69 L 90.442 54.386 L 94.314 54.386 L 94.314 49.33 L 101.482 49.33 L 101.482 59.634 Z M 126.569 42.482 L 121.065 42.482 L 121.065 39.986 L 119.017 39.986 L 119.017 54.386 L 121.257 54.386 L 121.257 59.634 L 107.817 59.634 L 107.817 54.386 L 110.057 54.386 L 110.057 39.986 L 108.009 39.986 L 108.009 42.482 L 102.505 42.482 L 102.505 34.738 L 126.569 34.738 Z M 147.626 54.386 L 148.906 54.386 L 148.906 59.634 L 136.362 59.634 L 136.362 54.386 L 138.282 54.386 L 137.77 51.826 L 133.418 51.826 L 132.906 54.386 L 134.826 54.386 L 134.826 59.634 L 123.882 59.634 L 123.882 54.386 L 125.162 54.386 L 130.57 34.738 L 142.218 34.738 Z M 134.122 48.434 L 137.066 48.434 L 135.754 42.066 L 135.434 42.066 Z" style="fill: rgb(255, 255, 255); text-wrap-mode: nowrap;"/>
</svg>